<?xml version="1.0" ?>
<!-- Uploaded to: SVG Repo, www.svgrepo.com, Generator: SVG Repo Mixer Tools -->
<svg width="800px" height="800px" viewBox="0 0 512 512" id="Layer_1" version="1.1" xml:space="preserve" xmlns="http://www.w3.org/2000/svg" xmlns:xlink="http://www.w3.org/1999/xlink">
<style type="text/css">
	.st0{fill:#6040EC;}
	.st1{fill:#0BDC49;}
</style>
<g>
<g>
<path class="st0" d="M183.5,390.4c-2.9,0-5.9-1.1-8.2-3.3L53.5,272.6c-4.4-4.1-6.9-9.9-6.9-16s2.5-11.9,6.8-16l121.9-115.8    c4.8-4.6,12.4-4.4,17,0.4c4.6,4.8,4.4,12.4-0.4,17L71.5,256.6l120.3,113.1c4.8,4.5,5.1,12.1,0.5,17    C189.9,389.1,186.7,390.4,183.5,390.4z"/>
</g>
<g>
<path class="st1" d="M328.5,390.4c-3.2,0-6.4-1.3-8.7-3.8c-4.5-4.8-4.3-12.4,0.5-17l120.3-113.1L320.2,142.3    c-4.8-4.6-5-12.2-0.4-17c4.6-4.8,12.2-5,17-0.4l121.9,115.8c4.4,4.1,6.9,10,6.8,16s-2.5,11.8-6.9,16L336.7,387.1    C334.4,389.3,331.4,390.4,328.5,390.4z"/>
</g>
</g>
</svg>